<svg width="164" height="13" viewBox="0 0 164 13" fill="none" xmlns="http://www.w3.org/2000/svg">
<path d="M4.07772 5.898L4.34772 5.556H8.05572L8.18172 5.898H4.07772ZM12.7537 11.784C12.8017 11.784 12.8257 11.82 12.8257 11.892C12.8257 11.964 12.8017 12 12.7537 12C12.4177 12 12.0697 11.988 11.7097 11.964C11.3617 11.94 11.0257 11.928 10.7017 11.928C10.3297 11.928 10.0057 11.94 9.72972 11.964C9.46572 11.988 9.17172 12 8.84772 12C8.79972 12 8.77572 11.964 8.77572 11.892C8.77572 11.82 8.79972 11.784 8.84772 11.784C9.51972 11.784 9.93972 11.694 10.1077 11.514C10.2877 11.334 10.2637 10.992 10.0357 10.488L5.96772 1.74L6.30972 1.434L2.83572 9.786C2.53572 10.518 2.51172 11.034 2.76372 11.334C3.01572 11.634 3.54972 11.784 4.36572 11.784C4.42572 11.784 4.45572 11.82 4.45572 11.892C4.45572 11.964 4.42572 12 4.36572 12C4.00572 12 3.67572 11.988 3.37572 11.964C3.07572 11.94 2.69772 11.928 2.24172 11.928C1.82172 11.928 1.47972 11.94 1.21572 11.964C0.963719 11.988 0.657719 12 0.297719 12C0.249719 12 0.225719 11.964 0.225719 11.892C0.225719 11.82 0.249719 11.784 0.297719 11.784C0.621719 11.784 0.903719 11.724 1.14372 11.604C1.38372 11.484 1.60572 11.268 1.80972 10.956C2.02572 10.644 2.25372 10.2 2.49372 9.624L6.25572 0.569999C6.27972 0.534 6.31572 0.516 6.36372 0.516C6.42372 0.516 6.45972 0.534 6.47172 0.569999L10.6477 9.534C10.9237 10.134 11.1697 10.602 11.3857 10.938C11.6017 11.262 11.8177 11.484 12.0337 11.604C12.2497 11.724 12.4897 11.784 12.7537 11.784ZM13.8201 12.216C13.5801 12.216 13.3821 12.168 13.2261 12.072C13.0701 11.976 12.9921 11.826 12.9921 11.622C12.9921 11.418 13.0641 11.28 13.2081 11.208C13.3521 11.136 13.5201 11.1 13.7121 11.1C13.7721 11.1 13.8321 11.1 13.8921 11.1C13.9641 11.1 14.0301 11.1 14.0901 11.1C14.5341 11.1 14.9301 10.92 15.2781 10.56C15.6381 10.188 15.9501 9.702 16.2141 9.102C16.4901 8.49 16.7181 7.812 16.8981 7.068C17.0901 6.312 17.2281 5.544 17.3121 4.764C17.4081 3.984 17.4561 3.246 17.4561 2.55C17.4561 2.238 17.4141 1.962 17.3301 1.722C17.2461 1.482 17.0781 1.296 16.8261 1.164C16.5741 1.032 16.1901 0.965999 15.6741 0.965999C15.6381 0.965999 15.6201 0.929999 15.6201 0.858C15.6201 0.786 15.6381 0.75 15.6741 0.75C15.7461 0.75 15.9441 0.75 16.2681 0.75C16.6041 0.75 17.0181 0.75 17.5101 0.75C18.0141 0.75 18.5541 0.75 19.1301 0.75C19.7061 0.75 20.2761 0.75 20.8401 0.75C21.4161 0.75 21.9441 0.75 22.4241 0.75C22.9161 0.75 23.3121 0.75 23.6121 0.75C23.9241 0.75 24.1041 0.75 24.1521 0.75C24.1881 0.75 24.2061 0.786 24.2061 0.858C24.2061 0.929999 24.1881 0.965999 24.1521 0.965999C23.6961 0.965999 23.3481 1.002 23.1081 1.074C22.8801 1.134 22.7241 1.254 22.6401 1.434C22.5681 1.602 22.5321 1.86 22.5321 2.208V10.542C22.5321 10.89 22.5681 11.154 22.6401 11.334C22.7241 11.514 22.8801 11.634 23.1081 11.694C23.3481 11.754 23.6961 11.784 24.1521 11.784C24.1881 11.784 24.2061 11.82 24.2061 11.892C24.2061 11.964 24.1881 12 24.1521 12C23.8761 12 23.5581 11.994 23.1981 11.982C22.8381 11.97 22.4601 11.964 22.0641 11.964C21.6561 11.964 21.2781 11.97 20.9301 11.982C20.5821 11.994 20.2701 12 19.9941 12C19.9581 12 19.9401 11.964 19.9401 11.892C19.9401 11.82 19.9581 11.784 19.9941 11.784C20.4621 11.784 20.8101 11.754 21.0381 11.694C21.2661 11.634 21.4161 11.514 21.4881 11.334C21.5601 11.154 21.5961 10.89 21.5961 10.542V2.244C21.5961 1.872 21.5721 1.608 21.5241 1.452C21.4761 1.296 21.3441 1.206 21.1281 1.182C20.9121 1.146 20.5521 1.128 20.0481 1.128H19.2021C18.8781 1.128 18.6141 1.158 18.4101 1.218C18.2181 1.278 18.0801 1.41 17.9961 1.614C17.9121 1.806 17.8701 2.118 17.8701 2.55C17.8701 3.03 17.8401 3.6 17.7801 4.26C17.7321 4.92 17.6481 5.616 17.5281 6.348C17.4081 7.068 17.2461 7.776 17.0421 8.472C16.8501 9.156 16.6041 9.786 16.3041 10.362C16.0041 10.926 15.6501 11.376 15.2421 11.712C14.8341 12.048 14.3601 12.216 13.8201 12.216ZM27.7879 10.686L27.5179 10.416L35.4199 1.974L35.7079 2.244L27.7879 10.686ZM25.4839 12C25.4599 12 25.4479 11.964 25.4479 11.892C25.4479 11.82 25.4599 11.784 25.4839 11.784C25.9399 11.784 26.2819 11.754 26.5099 11.694C26.7499 11.634 26.9059 11.514 26.9779 11.334C27.0619 11.154 27.1039 10.89 27.1039 10.542V2.208C27.1039 1.86 27.0619 1.602 26.9779 1.434C26.9059 1.254 26.7559 1.134 26.5279 1.074C26.2999 1.002 25.9579 0.965999 25.5019 0.965999C25.4779 0.965999 25.4659 0.929999 25.4659 0.858C25.4659 0.786 25.4779 0.75 25.5019 0.75C25.7899 0.75 26.1079 0.762 26.4559 0.786C26.8159 0.797999 27.1879 0.803999 27.5719 0.803999C27.9919 0.803999 28.3759 0.797999 28.7239 0.786C29.0719 0.762 29.3839 0.75 29.6599 0.75C29.6839 0.75 29.6959 0.786 29.6959 0.858C29.6959 0.929999 29.6839 0.965999 29.6599 0.965999C29.2039 0.965999 28.8619 1.002 28.6339 1.074C28.4059 1.146 28.2499 1.272 28.1659 1.452C28.0939 1.632 28.0579 1.896 28.0579 2.244V10.542C28.0579 10.89 28.0939 11.154 28.1659 11.334C28.2379 11.514 28.3879 11.634 28.6159 11.694C28.8559 11.754 29.2039 11.784 29.6599 11.784C29.6839 11.784 29.6959 11.82 29.6959 11.892C29.6959 11.964 29.6839 12 29.6599 12C29.3719 12 29.0539 11.994 28.7059 11.982C28.3699 11.97 27.9919 11.964 27.5719 11.964C27.1879 11.964 26.8159 11.97 26.4559 11.982C26.0959 11.994 25.7719 12 25.4839 12ZM33.4219 12C33.3979 12 33.3859 11.964 33.3859 11.892C33.3859 11.82 33.3979 11.784 33.4219 11.784C33.8899 11.784 34.2379 11.754 34.4659 11.694C34.6939 11.634 34.8439 11.514 34.9159 11.334C34.9879 11.154 35.0239 10.89 35.0239 10.542V2.244C35.0239 1.896 34.9879 1.632 34.9159 1.452C34.8439 1.272 34.6939 1.146 34.4659 1.074C34.2379 1.002 33.8899 0.965999 33.4219 0.965999C33.3979 0.965999 33.3859 0.929999 33.3859 0.858C33.3859 0.786 33.3979 0.75 33.4219 0.75C33.7099 0.75 34.0279 0.762 34.3759 0.786C34.7239 0.797999 35.1019 0.803999 35.5099 0.803999C35.8939 0.803999 36.2659 0.797999 36.6259 0.786C36.9859 0.762 37.3099 0.75 37.5979 0.75C37.6219 0.75 37.6339 0.786 37.6339 0.858C37.6339 0.929999 37.6219 0.965999 37.5979 0.965999C37.1419 0.965999 36.7939 1.002 36.5539 1.074C36.3259 1.134 36.1699 1.254 36.0859 1.434C36.0139 1.602 35.9779 1.86 35.9779 2.208V10.542C35.9779 10.89 36.0139 11.154 36.0859 11.334C36.1699 11.514 36.3259 11.634 36.5539 11.694C36.7939 11.754 37.1419 11.784 37.5979 11.784C37.6219 11.784 37.6339 11.82 37.6339 11.892C37.6339 11.964 37.6219 12 37.5979 12C37.3099 12 36.9859 11.994 36.6259 11.982C36.2659 11.97 35.8939 11.964 35.5099 11.964C35.1019 11.964 34.7239 11.97 34.3759 11.982C34.0279 11.994 33.7099 12 33.4219 12ZM48.6696 2.244C48.6696 1.896 48.6336 1.632 48.5616 1.452C48.4896 1.272 48.3396 1.146 48.1116 1.074C47.8836 1.002 47.5356 0.965999 47.0676 0.965999C47.0316 0.965999 47.0136 0.929999 47.0136 0.858C47.0136 0.786 47.0316 0.75 47.0676 0.75C47.3436 0.75 47.6556 0.762 48.0036 0.786C48.3636 0.797999 48.7476 0.803999 49.1556 0.803999C49.5396 0.803999 49.9116 0.797999 50.2716 0.786C50.6316 0.762 50.9496 0.75 51.2256 0.75C51.2616 0.75 51.2796 0.786 51.2796 0.858C51.2796 0.929999 51.2616 0.965999 51.2256 0.965999C50.7696 0.965999 50.4216 1.002 50.1816 1.074C49.9536 1.134 49.7976 1.254 49.7136 1.434C49.6416 1.602 49.6056 1.86 49.6056 2.208V10.542C49.6056 10.89 49.6416 11.154 49.7136 11.334C49.7976 11.514 49.9536 11.634 50.1816 11.694C50.4216 11.754 50.7696 11.784 51.2256 11.784C51.2616 11.784 51.2796 11.82 51.2796 11.892C51.2796 11.964 51.2616 12 51.2256 12C50.9496 12 50.6316 11.994 50.2716 11.982C49.9116 11.97 49.5396 11.964 49.1556 11.964C48.7476 11.964 48.3636 11.97 48.0036 11.982C47.6556 11.994 47.3436 12 47.0676 12C47.0316 12 47.0136 11.964 47.0136 11.892C47.0136 11.82 47.0316 11.784 47.0676 11.784C47.5356 11.784 47.8836 11.754 48.1116 11.694C48.3396 11.634 48.4896 11.514 48.5616 11.334C48.6336 11.154 48.6696 10.89 48.6696 10.542V2.244ZM40.9656 6.312V5.97H49.0656V6.312H40.9656ZM40.5336 10.542V2.208C40.5336 1.86 40.4916 1.602 40.4076 1.434C40.3356 1.254 40.1856 1.134 39.9576 1.074C39.7296 1.002 39.3876 0.965999 38.9316 0.965999C38.9076 0.965999 38.8956 0.929999 38.8956 0.858C38.8956 0.786 38.9076 0.75 38.9316 0.75C39.2196 0.75 39.5376 0.762 39.8856 0.786C40.2456 0.797999 40.6176 0.803999 41.0016 0.803999C41.4216 0.803999 41.8056 0.797999 42.1536 0.786C42.5016 0.762 42.8136 0.75 43.0896 0.75C43.1136 0.75 43.1256 0.786 43.1256 0.858C43.1256 0.929999 43.1136 0.965999 43.0896 0.965999C42.6336 0.965999 42.2916 1.002 42.0636 1.074C41.8356 1.146 41.6796 1.272 41.5956 1.452C41.5236 1.632 41.4876 1.896 41.4876 2.244V10.542C41.4876 10.89 41.5236 11.154 41.5956 11.334C41.6676 11.514 41.8176 11.634 42.0456 11.694C42.2856 11.754 42.6336 11.784 43.0896 11.784C43.1136 11.784 43.1256 11.82 43.1256 11.892C43.1256 11.964 43.1136 12 43.0896 12C42.8016 12 42.4836 11.994 42.1356 11.982C41.7996 11.97 41.4216 11.964 41.0016 11.964C40.6176 11.964 40.2456 11.97 39.8856 11.982C39.5256 11.994 39.2016 12 38.9136 12C38.8896 12 38.8776 11.964 38.8776 11.892C38.8776 11.82 38.8896 11.784 38.9136 11.784C39.3696 11.784 39.7116 11.754 39.9396 11.694C40.1796 11.634 40.3356 11.514 40.4076 11.334C40.4916 11.154 40.5336 10.89 40.5336 10.542ZM55.7223 5.898L55.9923 5.556H59.7003L59.8263 5.898H55.7223ZM64.3983 11.784C64.4463 11.784 64.4703 11.82 64.4703 11.892C64.4703 11.964 64.4463 12 64.3983 12C64.0623 12 63.7143 11.988 63.3543 11.964C63.0063 11.94 62.6703 11.928 62.3463 11.928C61.9743 11.928 61.6503 11.94 61.3743 11.964C61.1103 11.988 60.8163 12 60.4923 12C60.4443 12 60.4203 11.964 60.4203 11.892C60.4203 11.82 60.4443 11.784 60.4923 11.784C61.1643 11.784 61.5843 11.694 61.7523 11.514C61.9323 11.334 61.9083 10.992 61.6803 10.488L57.6123 1.74L57.9543 1.434L54.4803 9.786C54.1803 10.518 54.1563 11.034 54.4083 11.334C54.6603 11.634 55.1943 11.784 56.0103 11.784C56.0703 11.784 56.1003 11.82 56.1003 11.892C56.1003 11.964 56.0703 12 56.0103 12C55.6503 12 55.3203 11.988 55.0203 11.964C54.7203 11.94 54.3423 11.928 53.8863 11.928C53.4663 11.928 53.1243 11.94 52.8603 11.964C52.6083 11.988 52.3023 12 51.9423 12C51.8942 12 51.8702 11.964 51.8702 11.892C51.8702 11.82 51.8942 11.784 51.9423 11.784C52.2663 11.784 52.5483 11.724 52.7883 11.604C53.0283 11.484 53.2503 11.268 53.4543 10.956C53.6703 10.644 53.8983 10.2 54.1383 9.624L57.9003 0.569999C57.9243 0.534 57.9603 0.516 58.0083 0.516C58.0683 0.516 58.1043 0.534 58.1163 0.569999L62.2923 9.534C62.5683 10.134 62.8143 10.602 63.0303 10.938C63.2463 11.262 63.4623 11.484 63.6783 11.604C63.8943 11.724 64.1343 11.784 64.3983 11.784ZM78.0894 12C77.9814 12 77.8794 11.982 77.7834 11.946C77.6874 11.91 77.5614 11.802 77.4054 11.622C77.2494 11.442 77.0214 11.148 76.7214 10.74C76.4214 10.32 76.0074 9.732 75.4794 8.976C75.1074 8.436 74.7894 7.992 74.5254 7.644C74.2734 7.296 74.0334 7.032 73.8054 6.852C73.5894 6.66 73.3554 6.528 73.1034 6.456C72.8634 6.372 72.5634 6.33 72.2034 6.33C72.0834 6.33 71.9574 6.336 71.8254 6.348C71.6934 6.36 71.5554 6.372 71.4114 6.384L71.3934 6.06C72.1374 6.024 72.7134 6.006 73.1214 6.006C73.5054 6.006 73.8174 6.042 74.0574 6.114C74.3094 6.174 74.5374 6.3 74.7414 6.492C74.9454 6.672 75.1674 6.936 75.4074 7.284C75.6594 7.62 75.9834 8.064 76.3794 8.616C76.8594 9.288 77.2914 9.858 77.6754 10.326C78.0594 10.794 78.4494 11.154 78.8454 11.406C79.2534 11.646 79.7154 11.772 80.2314 11.784C80.2554 11.784 80.2674 11.82 80.2674 11.892C80.2674 11.964 80.2554 12 80.2314 12H78.0894ZM69.3414 12C69.3174 12 69.3054 11.964 69.3054 11.892C69.3054 11.82 69.3174 11.784 69.3414 11.784C69.7974 11.784 70.1394 11.754 70.3674 11.694C70.6074 11.634 70.7634 11.514 70.8354 11.334C70.9194 11.154 70.9614 10.89 70.9614 10.542V2.208C70.9614 1.86 70.9194 1.602 70.8354 1.434C70.7634 1.254 70.6134 1.134 70.3854 1.074C70.1574 1.002 69.8154 0.965999 69.3594 0.965999C69.3354 0.965999 69.3234 0.929999 69.3234 0.858C69.3234 0.786 69.3354 0.75 69.3594 0.75C69.6474 0.75 69.9654 0.762 70.3134 0.786C70.6734 0.797999 71.0454 0.803999 71.4294 0.803999C71.8494 0.803999 72.2334 0.797999 72.5814 0.786C72.9294 0.762 73.2414 0.75 73.5174 0.75C73.5414 0.75 73.5534 0.786 73.5534 0.858C73.5534 0.929999 73.5414 0.965999 73.5174 0.965999C73.0614 0.965999 72.7194 1.002 72.4914 1.074C72.2634 1.146 72.1074 1.272 72.0234 1.452C71.9514 1.632 71.9154 1.896 71.9154 2.244V10.542C71.9154 10.89 71.9514 11.154 72.0234 11.334C72.0954 11.514 72.2454 11.634 72.4734 11.694C72.7134 11.754 73.0614 11.784 73.5174 11.784C73.5414 11.784 73.5534 11.82 73.5534 11.892C73.5534 11.964 73.5414 12 73.5174 12C73.2294 12 72.9114 11.994 72.5634 11.982C72.2274 11.97 71.8494 11.964 71.4294 11.964C71.0454 11.964 70.6734 11.97 70.3134 11.982C69.9534 11.994 69.6294 12 69.3414 12ZM73.7874 6.294L73.4634 6.132L75.8034 2.856C76.3674 2.076 76.6434 1.566 76.6314 1.326C76.6194 1.086 76.2954 0.965999 75.6594 0.965999C75.6354 0.965999 75.6234 0.929999 75.6234 0.858C75.6234 0.786 75.6354 0.75 75.6594 0.75C75.9474 0.75 76.2354 0.762 76.5234 0.786C76.8114 0.797999 77.1954 0.803999 77.6754 0.803999C78.1314 0.803999 78.4854 0.797999 78.7374 0.786C79.0014 0.762 79.2534 0.75 79.4934 0.75C79.5294 0.75 79.5474 0.786 79.5474 0.858C79.5474 0.929999 79.5294 0.965999 79.4934 0.965999C79.0494 0.965999 78.6594 1.032 78.3234 1.164C77.9994 1.284 77.6814 1.494 77.3694 1.794C77.0694 2.082 76.7274 2.478 76.3434 2.982L73.7874 6.294ZM83.8363 10.47C83.8363 10.83 83.8843 11.106 83.9803 11.298C84.0883 11.478 84.3043 11.604 84.6283 11.676C84.9523 11.748 85.4383 11.784 86.0863 11.784C86.1223 11.784 86.1403 11.82 86.1403 11.892C86.1403 11.964 86.1223 12 86.0863 12C85.7023 12 85.2823 11.994 84.8263 11.982C84.3823 11.97 83.8963 11.964 83.3683 11.964C82.9843 11.964 82.6123 11.97 82.2523 11.982C81.8923 11.994 81.5683 12 81.2803 12C81.2563 12 81.2443 11.964 81.2443 11.892C81.2443 11.82 81.2563 11.784 81.2803 11.784C81.7363 11.784 82.0783 11.754 82.3063 11.694C82.5343 11.634 82.6843 11.514 82.7563 11.334C82.8403 11.154 82.8823 10.89 82.8823 10.542V2.208C82.8823 1.86 82.8403 1.602 82.7563 1.434C82.6843 1.254 82.5343 1.134 82.3063 1.074C82.0783 1.002 81.7363 0.965999 81.2803 0.965999C81.2563 0.965999 81.2443 0.929999 81.2443 0.858C81.2443 0.786 81.2563 0.75 81.2803 0.75C81.5683 0.75 81.8863 0.762 82.2343 0.786C82.5943 0.797999 82.9663 0.803999 83.3503 0.803999C83.6623 0.803999 84.0403 0.786 84.4843 0.75C84.9283 0.714 85.3903 0.696 85.8703 0.696C86.5303 0.696 87.1303 0.798 87.6703 1.002C88.2103 1.206 88.6363 1.524 88.9483 1.956C89.2723 2.388 89.4343 2.952 89.4343 3.648C89.4343 4.284 89.3143 4.83 89.0743 5.286C88.8343 5.742 88.5163 6.12 88.1203 6.42C87.7363 6.708 87.3103 6.924 86.8423 7.068C86.3743 7.212 85.9123 7.284 85.4563 7.284C85.3003 7.284 85.1443 7.278 84.9883 7.266C84.8443 7.254 84.7063 7.23 84.5743 7.194C84.5263 7.182 84.5083 7.14 84.5203 7.068C84.5443 6.984 84.5743 6.948 84.6103 6.96C84.7183 6.984 84.8263 7.002 84.9343 7.014C85.0543 7.026 85.1623 7.032 85.2583 7.032C85.7863 7.032 86.2843 6.924 86.7523 6.708C87.2203 6.492 87.5983 6.162 87.8863 5.718C88.1743 5.262 88.3183 4.692 88.3183 4.008C88.3183 3.348 88.1863 2.79 87.9223 2.334C87.6703 1.878 87.3283 1.53 86.8963 1.29C86.4643 1.05 85.9843 0.93 85.4563 0.93C85.0243 0.93 84.6883 0.954 84.4483 1.002C84.2203 1.038 84.0583 1.146 83.9623 1.326C83.8783 1.506 83.8363 1.812 83.8363 2.244V10.47ZM93.2867 5.898L93.5567 5.556H97.2647L97.3907 5.898H93.2867ZM101.963 11.784C102.011 11.784 102.035 11.82 102.035 11.892C102.035 11.964 102.011 12 101.963 12C101.627 12 101.279 11.988 100.919 11.964C100.571 11.94 100.235 11.928 99.9107 11.928C99.5387 11.928 99.2147 11.94 98.9387 11.964C98.6747 11.988 98.3807 12 98.0567 12C98.0087 12 97.9847 11.964 97.9847 11.892C97.9847 11.82 98.0087 11.784 98.0567 11.784C98.7287 11.784 99.1487 11.694 99.3167 11.514C99.4967 11.334 99.4727 10.992 99.2447 10.488L95.1767 1.74L95.5187 1.434L92.0447 9.786C91.7447 10.518 91.7207 11.034 91.9727 11.334C92.2247 11.634 92.7587 11.784 93.5747 11.784C93.6347 11.784 93.6647 11.82 93.6647 11.892C93.6647 11.964 93.6347 12 93.5747 12C93.2147 12 92.8847 11.988 92.5847 11.964C92.2847 11.94 91.9067 11.928 91.4507 11.928C91.0307 11.928 90.6887 11.94 90.4247 11.964C90.1727 11.988 89.8667 12 89.5067 12C89.4587 12 89.4347 11.964 89.4347 11.892C89.4347 11.82 89.4587 11.784 89.5067 11.784C89.8307 11.784 90.1127 11.724 90.3527 11.604C90.5927 11.484 90.8147 11.268 91.0187 10.956C91.2347 10.644 91.4627 10.2 91.7027 9.624L95.4647 0.569999C95.4887 0.534 95.5247 0.516 95.5727 0.516C95.6327 0.516 95.6687 0.534 95.6807 0.569999L99.8567 9.534C100.133 10.134 100.379 10.602 100.595 10.938C100.811 11.262 101.027 11.484 101.243 11.604C101.459 11.724 101.699 11.784 101.963 11.784ZM109.262 0.551999C109.826 0.551999 110.408 0.611999 111.008 0.731999C111.608 0.839999 112.094 1.002 112.466 1.218C112.562 1.278 112.622 1.332 112.646 1.38C112.682 1.428 112.706 1.518 112.718 1.65L112.916 3.54C112.916 3.564 112.886 3.588 112.826 3.612C112.766 3.624 112.73 3.606 112.718 3.558C112.478 2.586 111.98 1.908 111.224 1.524C110.48 1.128 109.592 0.93 108.56 0.93C107.612 0.93 106.784 1.134 106.076 1.542C105.368 1.938 104.816 2.502 104.42 3.234C104.024 3.954 103.826 4.8 103.826 5.772C103.826 6.636 103.964 7.446 104.24 8.202C104.528 8.958 104.918 9.618 105.41 10.182C105.914 10.746 106.484 11.19 107.12 11.514C107.768 11.838 108.452 12 109.172 12C110.024 12 110.774 11.772 111.422 11.316C112.082 10.86 112.568 10.14 112.88 9.156C112.892 9.108 112.928 9.096 112.988 9.12C113.06 9.132 113.096 9.15 113.096 9.174L112.844 11.1C112.82 11.244 112.79 11.34 112.754 11.388C112.73 11.424 112.664 11.466 112.556 11.514C111.98 11.766 111.404 11.946 110.828 12.054C110.264 12.162 109.694 12.216 109.118 12.216C107.978 12.216 107 12.042 106.184 11.694C105.368 11.334 104.702 10.866 104.186 10.29C103.682 9.702 103.31 9.06 103.07 8.364C102.83 7.656 102.71 6.954 102.71 6.258C102.71 5.406 102.89 4.632 103.25 3.936C103.61 3.24 104.096 2.64 104.708 2.136C105.332 1.632 106.034 1.242 106.814 0.965999C107.606 0.689999 108.422 0.551999 109.262 0.551999ZM124.273 2.244C124.273 1.896 124.237 1.632 124.165 1.452C124.093 1.272 123.943 1.146 123.715 1.074C123.487 1.002 123.139 0.965999 122.671 0.965999C122.635 0.965999 122.617 0.929999 122.617 0.858C122.617 0.786 122.635 0.75 122.671 0.75C122.947 0.75 123.259 0.762 123.607 0.786C123.967 0.797999 124.351 0.803999 124.759 0.803999C125.143 0.803999 125.515 0.797999 125.875 0.786C126.235 0.762 126.553 0.75 126.829 0.75C126.865 0.75 126.883 0.786 126.883 0.858C126.883 0.929999 126.865 0.965999 126.829 0.965999C126.373 0.965999 126.025 1.002 125.785 1.074C125.557 1.134 125.401 1.254 125.317 1.434C125.245 1.602 125.209 1.86 125.209 2.208V10.542C125.209 10.89 125.245 11.154 125.317 11.334C125.401 11.514 125.557 11.634 125.785 11.694C126.025 11.754 126.373 11.784 126.829 11.784C126.865 11.784 126.883 11.82 126.883 11.892C126.883 11.964 126.865 12 126.829 12C126.553 12 126.235 11.994 125.875 11.982C125.515 11.97 125.143 11.964 124.759 11.964C124.351 11.964 123.967 11.97 123.607 11.982C123.259 11.994 122.947 12 122.671 12C122.635 12 122.617 11.964 122.617 11.892C122.617 11.82 122.635 11.784 122.671 11.784C123.139 11.784 123.487 11.754 123.715 11.694C123.943 11.634 124.093 11.514 124.165 11.334C124.237 11.154 124.273 10.89 124.273 10.542V2.244ZM116.569 6.312V5.97H124.669V6.312H116.569ZM116.137 10.542V2.208C116.137 1.86 116.095 1.602 116.011 1.434C115.939 1.254 115.789 1.134 115.561 1.074C115.333 1.002 114.991 0.965999 114.535 0.965999C114.511 0.965999 114.499 0.929999 114.499 0.858C114.499 0.786 114.511 0.75 114.535 0.75C114.823 0.75 115.141 0.762 115.489 0.786C115.849 0.797999 116.221 0.803999 116.605 0.803999C117.025 0.803999 117.409 0.797999 117.757 0.786C118.105 0.762 118.417 0.75 118.693 0.75C118.717 0.75 118.729 0.786 118.729 0.858C118.729 0.929999 118.717 0.965999 118.693 0.965999C118.237 0.965999 117.895 1.002 117.667 1.074C117.439 1.146 117.283 1.272 117.199 1.452C117.127 1.632 117.091 1.896 117.091 2.244V10.542C117.091 10.89 117.127 11.154 117.199 11.334C117.271 11.514 117.421 11.634 117.649 11.694C117.889 11.754 118.237 11.784 118.693 11.784C118.717 11.784 118.729 11.82 118.729 11.892C118.729 11.964 118.717 12 118.693 12C118.405 12 118.087 11.994 117.739 11.982C117.403 11.97 117.025 11.964 116.605 11.964C116.221 11.964 115.849 11.97 115.489 11.982C115.129 11.994 114.805 12 114.517 12C114.493 12 114.481 11.964 114.481 11.892C114.481 11.82 114.493 11.784 114.517 11.784C114.973 11.784 115.315 11.754 115.543 11.694C115.783 11.634 115.939 11.514 116.011 11.334C116.095 11.154 116.137 10.89 116.137 10.542ZM134.098 12.216C133.234 12.216 132.448 12.066 131.74 11.766C131.044 11.454 130.444 11.028 129.94 10.488C129.448 9.948 129.064 9.33 128.788 8.634C128.524 7.926 128.392 7.176 128.392 6.384C128.392 5.412 128.578 4.56 128.95 3.828C129.334 3.096 129.838 2.49 130.462 2.01C131.086 1.518 131.77 1.152 132.514 0.911999C133.258 0.671999 133.996 0.551999 134.728 0.551999C135.616 0.551999 136.408 0.713999 137.104 1.038C137.812 1.35 138.412 1.776 138.904 2.316C139.396 2.856 139.768 3.468 140.02 4.152C140.284 4.836 140.416 5.538 140.416 6.258C140.416 7.098 140.248 7.878 139.912 8.598C139.576 9.318 139.114 9.948 138.526 10.488C137.95 11.028 137.278 11.454 136.51 11.766C135.754 12.066 134.95 12.216 134.098 12.216ZM134.746 11.856C135.586 11.856 136.348 11.664 137.032 11.28C137.716 10.884 138.256 10.308 138.652 9.552C139.06 8.784 139.264 7.854 139.264 6.762C139.264 5.622 139.042 4.62 138.598 3.756C138.166 2.88 137.554 2.196 136.762 1.704C135.97 1.2 135.04 0.948 133.972 0.948C132.58 0.948 131.494 1.38 130.714 2.244C129.934 3.108 129.544 4.284 129.544 5.772C129.544 6.612 129.664 7.404 129.904 8.148C130.156 8.88 130.51 9.528 130.966 10.092C131.434 10.644 131.986 11.076 132.622 11.388C133.258 11.7 133.966 11.856 134.746 11.856ZM146.655 5.808L146.853 5.646C147.537 5.646 148.137 5.778 148.653 6.042C149.169 6.306 149.565 6.666 149.841 7.122C150.129 7.578 150.273 8.094 150.273 8.67C150.273 9.318 150.123 9.9 149.823 10.416C149.523 10.932 149.109 11.34 148.581 11.64C148.065 11.928 147.483 12.072 146.835 12.072C146.439 12.072 146.001 12.054 145.521 12.018C145.041 11.982 144.591 11.964 144.171 11.964C143.787 11.964 143.415 11.97 143.055 11.982C142.695 11.994 142.371 12 142.083 12C142.059 12 142.047 11.964 142.047 11.892C142.047 11.82 142.059 11.784 142.083 11.784C142.539 11.784 142.881 11.754 143.109 11.694C143.349 11.634 143.511 11.514 143.595 11.334C143.679 11.154 143.721 10.89 143.721 10.542V2.208C143.721 1.86 143.679 1.602 143.595 1.434C143.523 1.254 143.373 1.134 143.145 1.074C142.917 1.002 142.575 0.965999 142.119 0.965999C142.083 0.965999 142.065 0.929999 142.065 0.858C142.065 0.786 142.083 0.75 142.119 0.75C142.395 0.75 142.707 0.762 143.055 0.786C143.415 0.797999 143.787 0.803999 144.171 0.803999C144.483 0.803999 144.843 0.786 145.251 0.75C145.671 0.714 146.013 0.696 146.277 0.696C146.985 0.696 147.549 0.81 147.969 1.038C148.401 1.254 148.713 1.542 148.905 1.902C149.097 2.262 149.193 2.658 149.193 3.09C149.193 3.774 148.947 4.35 148.455 4.818C147.975 5.286 147.375 5.616 146.655 5.808ZM145.863 0.93C145.575 0.93 145.341 0.954 145.161 1.002C144.981 1.038 144.849 1.146 144.765 1.326C144.693 1.506 144.657 1.812 144.657 2.244V5.772L144.117 5.628C144.501 5.652 144.819 5.67 145.071 5.682C145.323 5.682 145.467 5.682 145.503 5.682C146.499 5.682 147.201 5.448 147.609 4.98C148.017 4.5 148.221 3.912 148.221 3.216C148.221 2.808 148.143 2.43 147.987 2.082C147.843 1.734 147.597 1.458 147.249 1.254C146.913 1.038 146.451 0.93 145.863 0.93ZM146.583 11.784C147.495 11.784 148.161 11.55 148.581 11.082C149.013 10.602 149.229 9.948 149.229 9.12C149.229 8.22 148.953 7.482 148.401 6.906C147.849 6.33 147.093 6.036 146.133 6.024C145.797 6.012 145.467 6.012 145.143 6.024C144.819 6.036 144.495 6.066 144.171 6.114L144.657 5.916V10.542C144.657 10.842 144.705 11.088 144.801 11.28C144.897 11.46 145.083 11.592 145.359 11.676C145.635 11.748 146.043 11.784 146.583 11.784ZM154.986 5.898L155.256 5.556H158.964L159.09 5.898H154.986ZM163.662 11.784C163.71 11.784 163.734 11.82 163.734 11.892C163.734 11.964 163.71 12 163.662 12C163.326 12 162.978 11.988 162.618 11.964C162.27 11.94 161.934 11.928 161.61 11.928C161.238 11.928 160.914 11.94 160.638 11.964C160.374 11.988 160.08 12 159.756 12C159.708 12 159.684 11.964 159.684 11.892C159.684 11.82 159.708 11.784 159.756 11.784C160.428 11.784 160.848 11.694 161.016 11.514C161.196 11.334 161.172 10.992 160.944 10.488L156.876 1.74L157.218 1.434L153.744 9.786C153.444 10.518 153.42 11.034 153.672 11.334C153.924 11.634 154.458 11.784 155.274 11.784C155.334 11.784 155.364 11.82 155.364 11.892C155.364 11.964 155.334 12 155.274 12C154.914 12 154.584 11.988 154.284 11.964C153.984 11.94 153.606 11.928 153.15 11.928C152.73 11.928 152.388 11.94 152.124 11.964C151.872 11.988 151.566 12 151.206 12C151.158 12 151.134 11.964 151.134 11.892C151.134 11.82 151.158 11.784 151.206 11.784C151.53 11.784 151.812 11.724 152.052 11.604C152.292 11.484 152.514 11.268 152.718 10.956C152.934 10.644 153.162 10.2 153.402 9.624L157.164 0.569999C157.188 0.534 157.224 0.516 157.272 0.516C157.332 0.516 157.368 0.534 157.38 0.569999L161.556 9.534C161.832 10.134 162.078 10.602 162.294 10.938C162.51 11.262 162.726 11.484 162.942 11.604C163.158 11.724 163.398 11.784 163.662 11.784Z" fill="#110C0D"/>
</svg>
