<svg width="383" height="79" viewBox="0 0 383 79" fill="none" xmlns="http://www.w3.org/2000/svg">
<path d="M72.32 75.56C72.64 75.56 72.8 75.8 72.8 76.28C72.8 76.76 72.64 77 72.32 77C71.12 77 69.32 76.92 66.92 76.76C64.2 76.6 62.04 76.52 60.44 76.52C58.92 76.52 56.88 76.6 54.32 76.76C51.92 76.92 50.16 77 49.04 77C48.8 77 48.68 76.76 48.68 76.28C48.68 75.8 48.8 75.56 49.04 75.56C52.24 75.56 54.4 75.2 55.52 74.48C56.72 73.68 57.32 72.24 57.32 70.16C57.32 69.6 57.24 68.52 57.08 66.92L52.52 36.32H34.04L20.48 61.04C17.84 65.76 16.52 69.24 16.52 71.48C16.52 73.08 17.12 74.16 18.32 74.72C19.6 75.28 21.48 75.56 23.96 75.56C24.28 75.56 24.4 75.8 24.32 76.28C24.32 76.76 24.16 77 23.84 77C22.96 77 21.24 76.92 18.68 76.76C15.8 76.6 13.56 76.52 11.96 76.52C10.28 76.52 8.32 76.6 6.08 76.76C3.84 76.92 2.12 77 0.92 77C0.6 77 0.44 76.76 0.44 76.28C0.44 75.8 0.6 75.56 0.92 75.56C6.2 75.56 11.32 71.24 16.28 62.6L50.84 0.799994C51 0.559997 51.28 0.439999 51.68 0.439999C52.4 0.439999 52.84 0.639998 53 1.04L62.96 66.92C63.28 69.32 63.68 71.12 64.16 72.32C64.72 73.44 65.6 74.28 66.8 74.84C68 75.32 69.84 75.56 72.32 75.56ZM35.24 34.04H52.16L48.56 9.92L35.24 34.04ZM79.3559 78.44C76.1559 78.44 74.5559 77.28 74.5559 74.96C74.5559 74.56 74.5959 74.24 74.6759 74C74.9159 72.8 75.4359 72 76.2359 71.6C77.0359 71.2 78.1159 71 79.4759 71H81.7559C85.9159 71 90.0759 68 94.2359 62C98.3959 55.92 102.036 48.4 105.156 39.44C108.356 30.48 110.716 21.84 112.236 13.52C112.476 12.32 112.596 11.16 112.596 10.04C112.596 7.88 111.916 6.24 110.556 5.12C109.196 4 106.796 3.44 103.356 3.44C103.196 3.44 103.116 3.2 103.116 2.72C103.116 2.24 103.196 2 103.356 2H154.356C154.516 2 154.596 2.24 154.596 2.72C154.596 3.2 154.516 3.44 154.356 3.44C151.556 3.44 149.396 3.68 147.876 4.15999C146.436 4.55999 145.356 5.35999 144.636 6.56C143.916 7.68 143.356 9.44 142.956 11.84L133.116 67.4C132.876 68.68 132.756 69.84 132.756 70.88C132.756 72.8 133.316 74.08 134.436 74.72C135.636 75.28 137.956 75.56 141.396 75.56C141.636 75.56 141.756 75.8 141.756 76.28C141.756 76.76 141.636 77 141.396 77C139.156 77 137.396 76.96 136.116 76.88L128.916 76.76L121.356 76.88C120.156 76.96 118.476 77 116.316 77C116.076 77 115.956 76.76 115.956 76.28C115.956 75.8 116.076 75.56 116.316 75.56C119.116 75.56 121.236 75.36 122.676 74.96C124.116 74.48 125.156 73.68 125.796 72.56C126.516 71.36 127.076 69.56 127.476 67.16L137.316 11.84C137.716 9.67999 137.916 8.19999 137.916 7.39999C137.916 6.44 137.676 5.76 137.196 5.36C136.716 4.96 135.956 4.71999 134.916 4.63999C133.956 4.56 132.156 4.52 129.516 4.52H124.356C122.196 4.52 120.516 4.76 119.316 5.23999C118.116 5.63999 117.116 6.55999 116.316 7.99999C115.516 9.36 114.876 11.48 114.396 14.36C112.956 22.28 110.596 31.24 107.316 41.24C104.116 51.16 100.076 59.84 95.1959 67.28C90.3959 74.72 85.1159 78.44 79.3559 78.44ZM237.547 2C237.867 2 238.027 2.24 238.027 2.72C238.027 3.2 237.867 3.44 237.547 3.44C234.667 3.44 232.507 3.68 231.067 4.15999C229.627 4.55999 228.547 5.35999 227.827 6.56C227.107 7.68 226.547 9.44 226.147 11.84L216.427 67.4C216.107 69.32 215.947 70.52 215.947 71C215.947 72.84 216.547 74.08 217.747 74.72C218.947 75.28 221.187 75.56 224.467 75.56C224.787 75.56 224.947 75.8 224.947 76.28C224.947 76.76 224.787 77 224.467 77C222.227 77 220.467 76.96 219.187 76.88L211.987 76.76L204.427 76.88C203.227 76.96 201.587 77 199.507 77C199.267 77 199.147 76.76 199.147 76.28C199.147 75.8 199.267 75.56 199.507 75.56C202.387 75.56 204.507 75.36 205.867 74.96C207.307 74.48 208.347 73.68 208.987 72.56C209.707 71.36 210.307 69.56 210.787 67.16L219.547 16.64L169.027 66.44L168.907 67.4C168.587 69.48 168.427 70.76 168.427 71.24C168.427 73 168.987 74.16 170.107 74.72C171.307 75.28 173.587 75.56 176.947 75.56C177.267 75.56 177.427 75.8 177.427 76.28C177.427 76.76 177.267 77 176.947 77C174.707 77 172.947 76.96 171.667 76.88L164.467 76.76L157.027 76.88C155.747 76.96 154.067 77 151.987 77C151.667 77 151.507 76.76 151.507 76.28C151.507 75.8 151.667 75.56 151.987 75.56C154.787 75.56 156.907 75.36 158.347 74.96C159.787 74.48 160.827 73.68 161.467 72.56C162.187 71.36 162.747 69.56 163.147 67.16L172.987 11.6C173.307 9.52 173.467 8.28 173.467 7.88C173.467 6.11999 172.867 4.96 171.667 4.4C170.467 3.76 168.227 3.44 164.947 3.44C164.707 3.44 164.587 3.2 164.587 2.72C164.587 2.24 164.707 2 164.947 2L170.347 2.12C173.387 2.28 175.707 2.36 177.307 2.36C179.467 2.36 182.067 2.28 185.107 2.12L189.787 2C190.107 2 190.267 2.24 190.267 2.72C190.267 3.2 190.107 3.44 189.787 3.44C186.987 3.44 184.867 3.68 183.427 4.15999C181.987 4.64 180.907 5.48 180.187 6.68C179.547 7.88 179.027 9.72 178.627 12.2L169.747 62.36L220.147 13.04L220.387 11.84C220.707 10.48 220.867 9.16 220.867 7.88C220.867 6.11999 220.267 4.96 219.067 4.4C217.867 3.76 215.667 3.44 212.467 3.44C212.147 3.44 211.987 3.2 211.987 2.72C211.987 2.24 212.147 2 212.467 2L217.867 2.12C220.747 2.28 223.107 2.36 224.947 2.36C226.867 2.36 229.347 2.28 232.387 2.12L237.547 2ZM317.747 2C317.987 2 318.107 2.24 318.107 2.72C318.107 3.2 317.987 3.44 317.747 3.44C315.107 3.44 313.147 3.68 311.867 4.15999C310.587 4.55999 309.587 5.32 308.867 6.44C308.227 7.56 307.707 9.32 307.307 11.72L297.467 67.28C297.227 68.72 297.107 69.96 297.107 71C297.107 72.84 297.667 74.08 298.787 74.72C299.987 75.28 302.107 75.56 305.147 75.56C305.387 75.56 305.507 75.8 305.507 76.28C305.507 76.76 305.387 77 305.147 77C303.067 77 301.427 76.96 300.227 76.88L293.387 76.76L286.307 76.88C285.107 76.96 283.427 77 281.267 77C281.107 77 281.027 76.76 281.027 76.28C281.027 75.8 281.107 75.56 281.267 75.56C283.987 75.56 285.987 75.36 287.267 74.96C288.627 74.56 289.627 73.8 290.267 72.68C290.907 71.56 291.427 69.76 291.827 67.28L296.747 39.08H256.427L251.387 67.28C251.067 69.36 250.907 70.64 250.907 71.12C250.907 72.88 251.467 74.08 252.587 74.72C253.787 75.28 255.907 75.56 258.947 75.56C259.187 75.56 259.307 75.8 259.307 76.28C259.307 76.76 259.187 77 258.947 77C256.867 77 255.227 76.96 254.027 76.88L246.827 76.76L239.867 76.88C238.747 76.96 237.187 77 235.187 77C234.947 77 234.827 76.76 234.827 76.28C234.827 75.8 234.947 75.56 235.187 75.56C237.827 75.56 239.787 75.36 241.067 74.96C242.427 74.56 243.427 73.8 244.067 72.68C244.787 71.48 245.347 69.68 245.747 67.28L255.587 11.72C255.827 10.28 255.947 9.04 255.947 7.99999C255.947 6.15999 255.387 4.96 254.267 4.4C253.147 3.76 251.067 3.44 248.027 3.44C247.867 3.44 247.787 3.2 247.787 2.72C247.787 2.24 247.867 2 248.027 2L252.827 2.12C255.707 2.28 257.987 2.36 259.667 2.36C261.427 2.36 263.827 2.28 266.867 2.12L271.787 2C271.947 2 272.027 2.24 272.027 2.72C272.027 3.2 271.947 3.44 271.787 3.44C269.147 3.44 267.147 3.68 265.787 4.15999C264.507 4.64 263.547 5.48 262.907 6.68C262.267 7.8 261.707 9.56 261.227 11.96L256.787 36.8H297.227L301.547 11.96C301.867 9.88 302.027 8.56 302.027 7.99999C302.027 6.24 301.467 5.04 300.347 4.4C299.227 3.76 297.147 3.44 294.107 3.44C293.867 3.44 293.747 3.2 293.747 2.72C293.747 2.24 293.867 2 294.107 2L298.907 2.12C301.787 2.28 304.107 2.36 305.867 2.36C307.627 2.36 309.947 2.28 312.827 2.12L317.747 2ZM381.578 75.56C381.898 75.56 382.058 75.8 382.058 76.28C382.058 76.76 381.898 77 381.578 77C380.378 77 378.578 76.92 376.178 76.76C373.458 76.6 371.298 76.52 369.698 76.52C368.178 76.52 366.138 76.6 363.578 76.76C361.178 76.92 359.418 77 358.298 77C358.058 77 357.938 76.76 357.938 76.28C357.938 75.8 358.058 75.56 358.298 75.56C361.498 75.56 363.658 75.2 364.778 74.48C365.978 73.68 366.578 72.24 366.578 70.16C366.578 69.6 366.498 68.52 366.338 66.92L361.778 36.32H343.298L329.738 61.04C327.098 65.76 325.778 69.24 325.778 71.48C325.778 73.08 326.378 74.16 327.578 74.72C328.858 75.28 330.738 75.56 333.218 75.56C333.538 75.56 333.658 75.8 333.578 76.28C333.578 76.76 333.418 77 333.098 77C332.218 77 330.498 76.92 327.938 76.76C325.058 76.6 322.818 76.52 321.218 76.52C319.538 76.52 317.578 76.6 315.338 76.76C313.098 76.92 311.378 77 310.178 77C309.858 77 309.698 76.76 309.698 76.28C309.698 75.8 309.858 75.56 310.178 75.56C315.458 75.56 320.578 71.24 325.538 62.6L360.098 0.799994C360.258 0.559997 360.538 0.439999 360.938 0.439999C361.658 0.439999 362.098 0.639998 362.258 1.04L372.218 66.92C372.538 69.32 372.938 71.12 373.418 72.32C373.978 73.44 374.858 74.28 376.058 74.84C377.258 75.32 379.098 75.56 381.578 75.56ZM344.498 34.04H361.418L357.818 9.92L344.498 34.04Z" fill="#910448"/>
</svg>
